<?xml version="1.0" encoding="utf-8"?>
<!-- Generator: Adobe Illustrator 14.0.0, SVG Export Plug-In  -->
<!DOCTYPE svg PUBLIC "-//W3C//DTD SVG 1.1//EN" "http://www.w3.org/Graphics/SVG/1.1/DTD/svg11.dtd" [
	<!ENTITY ns_flows "http://ns.adobe.com/Flows/1.0/">
]>
<svg version="1.1"
	 xmlns="http://www.w3.org/2000/svg" xmlns:xlink="http://www.w3.org/1999/xlink" xmlns:a="http://ns.adobe.com/AdobeSVGViewerExtensions/3.0/"
	 x="0px" y="0px" width="250px" height="60px" viewBox="5.347 -1.474 250 60" enable-background="new 5.347 -1.474 250 60"
	 xml:space="preserve">
<defs>
</defs>
<g>
	<path fill="#FFFFFF" d="M14.033,50.359H8.656l2.288-4.906h5.377L14.033,50.359z"/>
	<path fill="#FFFFFF" d="M44.802,47.264c-0.425,0.912-1.131,1.655-2.118,2.23c-0.988,0.577-2.06,0.864-3.215,0.864H25.53
		c-1.156,0-1.97-0.287-2.445-0.864c-0.475-0.575-0.499-1.318-0.074-2.23l5.161-11.067h4.917L28.084,46.93h11.957l4.849-10.399
		l-8.496-14.553c-0.593-1.004-0.608-2.109-0.045-3.317l4.122-8.838c0.425-0.911,1.143-1.654,2.154-2.23s2.094-0.864,3.25-0.864
		h13.938c1.155,0,1.959,0.288,2.41,0.864c0.45,0.576,0.463,1.32,0.038,2.23l-4.732,10.148h-4.917l4.576-9.814H45.231l-4.29,9.2
		l8.567,14.554c0.563,0.966,0.563,2.054-0.001,3.262L44.802,47.264z"/>
	<path fill="#FFFFFF" d="M83.524,29.924c-0.424,0.91-1.146,1.658-2.16,2.243c-1.017,0.586-2.104,0.879-3.259,0.879H65.052
		l-8.073,17.313h-4.917L72.407,6.728h17.971c1.155,0,1.972,0.288,2.446,0.864c0.474,0.576,0.499,1.32,0.074,2.23L83.524,29.924z
		 M78.763,29.589l9.062-19.433H75.726l-9.062,19.433H78.763z"/>
	<path fill="#FFFFFF" d="M105.338,50.359h-5.165l0.6-23.362l1.036-0.781h8.773l7.488-16.059h-12.63L86.695,50.359h-4.917
		l20.345-43.631h18.537c1.155,0,1.965,0.288,2.428,0.864c0.462,0.576,0.481,1.32,0.057,2.23l-7.723,16.561
		c-0.979,2.1-3.262,3.15-6.846,3.15c-0.354,0-0.867-0.014-1.537-0.042c-0.672-0.027-1.16-0.041-1.467-0.041
		C105.515,36.401,105.436,43.371,105.338,50.359z"/>
	<path fill="#FFFFFF" d="M117.897,50.359h-4.917l20.345-43.631h4.917L117.897,50.359z"/>
	<path fill="#FFFFFF" d="M149.948,50.359h-3.396l0.177-32.089l-14.964,32.089h-4.634l20.345-43.631h3.68l-0.199,31.531
		l14.703-31.531h4.634L149.948,50.359z"/>
	<path fill="#FFFFFF" d="M196.605,10.157h-8.561l-18.747,40.202h-4.916l18.746-40.202h-8.632l1.599-3.429h22.109L196.605,10.157z"/>
	<path fill="#FFFFFF" d="M201.81,50.359h-18.184l20.345-43.631h17.971l-1.599,3.429h-13.054l-7.593,16.282h11.887l-1.625,3.486
		h-11.887l-7.93,17.006h13.267L201.81,50.359z"/>
	<path fill="#FFFFFF" d="M233.046,50.359h-5.166l0.601-23.362l1.036-0.781h8.773l7.488-16.059h-12.63l-18.747,40.202h-4.916
		L229.83,6.728h18.537c1.155,0,1.965,0.288,2.428,0.864c0.462,0.576,0.481,1.32,0.057,2.23l-7.723,16.561
		c-0.979,2.1-3.262,3.15-6.846,3.15c-0.354,0-0.866-0.014-1.537-0.042c-0.672-0.027-1.16-0.041-1.467-0.041
		C233.222,36.401,233.144,43.371,233.046,50.359z"/>
</g>
</svg>
